<?xml version="1.0" encoding="UTF-8" standalone="no"?>
<svg
   xmlns:dc="http://purl.org/dc/elements/1.1/"
   xmlns:cc="http://creativecommons.org/ns#"
   xmlns:rdf="http://www.w3.org/1999/02/22-rdf-syntax-ns#"
   xmlns:svg="http://www.w3.org/2000/svg"
   xmlns="http://www.w3.org/2000/svg"
   xmlns:sodipodi="http://sodipodi.sourceforge.net/DTD/sodipodi-0.dtd"
   xmlns:inkscape="http://www.inkscape.org/namespaces/inkscape"
   width="1024"
   height="1024"
   viewBox="0 0 270.93333 270.93333"
   version="1.1"
   id="svg1536"
   inkscape:version="1.0.1 (3bc2e813f5, 2020-09-07)"
   sodipodi:docname="chuck.svg">
  <defs
     id="defs1530" />
  <sodipodi:namedview
     id="base"
     pagecolor="#ffffff"
     bordercolor="#666666"
     borderopacity="1.0"
     inkscape:pageopacity="0.0"
     inkscape:pageshadow="2"
     inkscape:zoom="0.49497475"
     inkscape:cx="199.84175"
     inkscape:cy="424.91199"
     inkscape:document-units="mm"
     inkscape:current-layer="layer7"
     inkscape:document-rotation="0"
     showgrid="false"
     units="px"
     inkscape:pagecheckerboard="true"
     inkscape:window-width="1420"
     inkscape:window-height="1198"
     inkscape:window-x="1282"
     inkscape:window-y="314"
     inkscape:window-maximized="0" />
  <metadata
     id="metadata1533">
    <rdf:RDF>
      <cc:Work
         rdf:about="">
        <dc:format>image/svg+xml</dc:format>
        <dc:type
           rdf:resource="http://purl.org/dc/dcmitype/StillImage" />
        <dc:title></dc:title>
      </cc:Work>
    </rdf:RDF>
  </metadata>
  <g
     inkscape:groupmode="layer"
     id="layer7"
     inkscape:label="Réteg 2">
    <g
       id="g2381"
       transform="rotate(-45,135.46667,135.46663)"
       style="fill:#ffffff">
      <path
         id="path2209-35"
         style="fill:#ffffff;stroke:none;stroke-width:0.999999px;stroke-linecap:butt;stroke-linejoin:miter;stroke-opacity:1"
         d="m 514.43164,-127.99805 c -17.04808,0.10028 -34.90699,5.09784 -52.43164,14.69141 v 370 l 40,40 h 20 l 40,-40 v -370 c -14.28302,-9.99468 -30.52028,-14.79168 -47.56836,-14.69141 z M 511.75586,-20 A 21.999999,21.999999 0 0 1 512,-20 21.999999,21.999999 0 0 1 534,2 21.999999,21.999999 0 0 1 512,24 21.999999,21.999999 0 0 1 490,2 21.999999,21.999999 0 0 1 511.75586,-20 Z m 0,170 a 21.999999,21.999999 0 0 1 0.24414,0 21.999999,21.999999 0 0 1 22,22 21.999999,21.999999 0 0 1 -22,22 21.999999,21.999999 0 0 1 -22,-22 21.999999,21.999999 0 0 1 21.75586,-22 z"
         transform="scale(0.26458333)" />
      <path
         id="path2209-3-4"
         style="fill:#ffffff;stroke:none;stroke-width:0.999999px;stroke-linecap:butt;stroke-linejoin:miter;stroke-opacity:1"
         d="m 502,727.30664 -40,40 v 369.99996 c 35.0493,19.1871 71.43399,19.9894 100,0 V 767.30664 l -40,-40 z M 512,830 a 21.999999,21.999999 0 0 1 22,22 21.999999,21.999999 0 0 1 -22,22 21.999999,21.999999 0 0 1 -22,-22 21.999999,21.999999 0 0 1 22,-22 z m 0,170 a 21.999999,21.999999 0 0 1 22,22 21.999999,21.999999 0 0 1 -22,22 21.999999,21.999999 0 0 1 -22,-22 21.999999,21.999999 0 0 1 22,-22 z"
         transform="scale(0.26458333)" />
      <path
         id="path2209-2-2"
         style="fill:#ffffff;stroke:none;stroke-width:0.999999px;stroke-linecap:butt;stroke-linejoin:miter;stroke-opacity:1"
         d="m 767.30664,462 -40,40 v 20 l 40,40 h 369.99996 c 19.9894,-28.56605 19.1872,-64.95074 0,-100 z M 852,490 a 21.999999,21.999999 0 0 1 22,22 21.999999,21.999999 0 0 1 -22,22 21.999999,21.999999 0 0 1 -22,-22 21.999999,21.999999 0 0 1 22,-22 z m 170,0 a 21.999999,21.999999 0 0 1 22,22 21.999999,21.999999 0 0 1 -22,22 21.999999,21.999999 0 0 1 -22,-22 21.999999,21.999999 0 0 1 22,-22 z"
         transform="scale(0.26458333)" />
      <path
         id="path2209-3-7-8"
         style="fill:#ffffff;stroke:none;stroke-width:0.999999px;stroke-linecap:butt;stroke-linejoin:miter;stroke-opacity:1"
         d="m -113.30664,462 c -19.18707,35.04926 -19.98941,71.43399 0,100 h 370 l 40,-40 v -20 l -40,-40 z M 2,490 A 21.999999,21.999999 0 0 1 24,512 21.999999,21.999999 0 0 1 2,534 21.999999,21.999999 0 0 1 -20,512 21.999999,21.999999 0 0 1 2,490 Z m 170,0 a 21.999999,21.999999 0 0 1 22,22 21.999999,21.999999 0 0 1 -22,22 21.999999,21.999999 0 0 1 -22,-22 21.999999,21.999999 0 0 1 22,-22 z"
         transform="scale(0.26458333)" />
    </g>
    <path
       id="path2116"
       style="display:inline;fill:#ffffff;fill-rule:evenodd;stroke-width:0.976562"
       d="M 512,12 A 499.99999,499.99999 0 0 0 211.42578,112.43164 l 71.59375,71.59375 A 400.00001,400.00001 0 0 1 512,112 400.00001,400.00001 0 0 1 740.98047,184.02539 l 71.59375,-71.59375 A 499.99999,499.99999 0 0 0 512,12 Z m -0.23047,120 a 379.99997,379.99997 0 0 0 -214.375,66.40039 l 72.40039,72.40039 A 280.00001,280.00001 0 0 1 512,232 280.00001,280.00001 0 0 1 654.20508,270.80078 l 72.40039,-72.40039 A 379.99997,379.99997 0 0 0 512,132 a 379.99997,379.99997 0 0 0 -0.23047,0 z M 112.42969,211.42578 A 499.99999,499.99999 0 0 0 12,512 499.99999,499.99999 0 0 0 112.43164,812.57227 l 71.59375,-71.59375 A 400.00001,400.00001 0 0 1 112,512 400.00001,400.00001 0 0 1 184.02539,283.02148 Z m 799.13867,0 -71.59375,71.59375 A 400.00001,400.00001 0 0 1 912,512 400.00001,400.00001 0 0 1 839.97461,740.98047 l 71.59375,71.59375 A 499.99999,499.99999 0 0 0 1012,512 499.99999,499.99999 0 0 0 911.56836,211.42578 Z M 511.7207,252 a 259.99999,259.99999 0 0 0 -127.2832,33.44336 l 75.32422,75.32422 A 159.99999,159.99999 0 0 1 511.69531,352 159.99999,159.99999 0 0 1 512,352 a 159.99999,159.99999 0 0 1 52.23828,8.76758 L 639.5625,285.44336 A 259.99999,259.99999 0 0 0 512,252 a 259.99999,259.99999 0 0 0 -0.2793,0 z M 198.39844,297.39453 A 379.99997,379.99997 0 0 0 132,512 379.99997,379.99997 0 0 0 198.40039,726.60352 l 72.39844,-72.39844 A 280.00001,280.00001 0 0 1 232,512 280.00001,280.00001 0 0 1 270.79883,369.79492 Z m 627.20117,0 -72.40039,72.40039 A 280.00001,280.00001 0 0 1 792,512 280.00001,280.00001 0 0 1 753.19922,654.20508 l 72.40039,72.40039 A 379.99997,379.99997 0 0 0 892,512 379.99997,379.99997 0 0 0 825.59961,297.39453 Z M 386.625,315.91406 v 56.56836 L 372.48242,386.625 h -56.56836 l 53.25977,53.25977 a 159.99999,159.99999 0 0 1 70.71094,-70.71094 z m 250.75,0.002 -53.25977,53.25976 a 159.99999,159.99999 0 0 1 70.71094,70.70899 L 708.08594,386.625 H 651.51758 L 637.375,372.48242 Z m 101.18164,68.52148 -75.32422,75.32422 A 159.99999,159.99999 0 0 1 672,512 a 159.99999,159.99999 0 0 1 -8.76758,52.23828 l 75.32422,75.32422 A 259.99999,259.99999 0 0 0 772,512 259.99999,259.99999 0 0 0 738.55664,384.4375 Z m -453.11328,0.002 A 259.99999,259.99999 0 0 0 252,512 259.99999,259.99999 0 0 0 285.44336,639.56055 l 75.32422,-75.32422 A 159.99999,159.99999 0 0 1 352,512 a 159.99999,159.99999 0 0 1 8.76758,-52.23633 z m 369.38281,199.67383 a 159.99999,159.99999 0 0 1 -70.71094,70.71289 L 637.375,708.08594 V 651.51758 L 651.51758,637.375 h 56.56836 z m -285.65234,0.002 -53.25977,53.25977 h 56.56836 l 14.14258,14.14258 v 56.56836 l 53.25977,-53.25977 a 159.99999,159.99999 0 0 1 -70.71094,-70.71094 z m 90.58984,79.11719 -75.32617,75.32422 A 259.99999,259.99999 0 0 0 512,772 259.99999,259.99999 0 0 0 639.56055,738.55664 L 564.23633,663.23242 A 159.99999,159.99999 0 0 1 512,672 159.99999,159.99999 0 0 1 459.76367,663.23242 Z m -89.96875,89.96875 -72.40039,72.39844 A 379.99997,379.99997 0 0 0 512,892 379.99997,379.99997 0 0 0 726.60352,825.59961 L 654.20508,753.20117 A 280.00001,280.00001 0 0 1 512,792 280.00001,280.00001 0 0 1 369.79492,753.20117 Z m -86.77539,86.77344 -71.59375,71.59375 A 499.99999,499.99999 0 0 0 512,1012 499.99999,499.99999 0 0 0 812.57227,911.56836 L 740.97852,839.97461 A 400.00001,400.00001 0 0 1 512,912 400.00001,400.00001 0 0 1 283.01953,839.97461 Z"
       transform="scale(0.26458333)" />
  </g>
</svg>
