<?xml version="1.0" encoding="UTF-8" standalone="no"?>
<svg
   xmlns:dc="http://purl.org/dc/elements/1.1/"
   xmlns:cc="http://creativecommons.org/ns#"
   xmlns:rdf="http://www.w3.org/1999/02/22-rdf-syntax-ns#"
   xmlns:svg="http://www.w3.org/2000/svg"
   xmlns="http://www.w3.org/2000/svg"
   xmlns:sodipodi="http://sodipodi.sourceforge.net/DTD/sodipodi-0.dtd"
   xmlns:inkscape="http://www.inkscape.org/namespaces/inkscape"
   width="210mm"
   height="297mm"
   viewBox="0 0 210 297"
   version="1.1"
   id="svg8"
   inkscape:version="1.0.1 (3bc2e813f5, 2020-09-07)"
   sodipodi:docname="logo.svg">
  <defs
     id="defs2" />
  <sodipodi:namedview
     id="base"
     pagecolor="#ffffff"
     bordercolor="#666666"
     borderopacity="1.0"
     inkscape:pageopacity="0.0"
     inkscape:pageshadow="2"
     inkscape:zoom="1.4"
     inkscape:cx="91.812856"
     inkscape:cy="504.5882"
     inkscape:document-units="mm"
     inkscape:current-layer="layer1"
     inkscape:document-rotation="0"
     showgrid="false"
     inkscape:window-width="3840"
     inkscape:window-height="2097"
     inkscape:window-x="-8"
     inkscape:window-y="-8"
     inkscape:window-maximized="1" />
  <metadata
     id="metadata5">
    <rdf:RDF>
      <cc:Work
         rdf:about="">
        <dc:format>image/svg+xml</dc:format>
        <dc:type
           rdf:resource="http://purl.org/dc/dcmitype/StillImage" />
        <dc:title />
      </cc:Work>
    </rdf:RDF>
  </metadata>
  <g
     inkscape:label="Réteg 1"
     inkscape:groupmode="layer"
     id="layer1">
    <g
       id="g929"
       transform="translate(33.261905,38.931548)">
      <g
         id="g908">
        <path
           style="fill:#bfbfbf;fill-opacity:1;stroke:#000000;stroke-width:1;stroke-linecap:butt;stroke-linejoin:miter;stroke-miterlimit:4;stroke-dasharray:none;stroke-opacity:1"
           d="M 0,60 H 40 L 50,40 60,60 70,40 80,60 90,40 100,60 110,40 120,60 130,40 V 0 H 0 Z"
           id="path833"
           sodipodi:nodetypes="cccccccccccccc" />
        <g
           id="g870"
           style="stroke:#000000;stroke-width:1;stroke-miterlimit:4;stroke-dasharray:none;stroke-opacity:1">
          <path
             style="fill:#9b9b9b;fill-opacity:1;stroke:#000000;stroke-width:1;stroke-linecap:butt;stroke-linejoin:miter;stroke-miterlimit:4;stroke-dasharray:none;stroke-opacity:1"
             d="M 39.999999,59.999998 34.999998,0 H 44.999999 L 50,39.999999 Z"
             id="path855" />
          <path
             style="fill:#9b9b9b;fill-opacity:1;stroke:#000000;stroke-width:1;stroke-linecap:butt;stroke-linejoin:miter;stroke-miterlimit:4;stroke-dasharray:none;stroke-opacity:1"
             d="M 55,0 59.999998,59.999998 69.999999,39.999999 64.999999,0 H 55"
             id="path857" />
          <path
             style="fill:#9b9b9b;fill-opacity:1;stroke:#000000;stroke-width:1;stroke-linecap:butt;stroke-linejoin:miter;stroke-miterlimit:4;stroke-dasharray:none;stroke-opacity:1"
             d="M 75,0 79.999998,59.999998 89.999999,39.999999 84.999998,0 H 75"
             id="path859" />
          <path
             style="fill:#9b9b9b;fill-opacity:1;stroke:#000000;stroke-width:1;stroke-linecap:butt;stroke-linejoin:miter;stroke-miterlimit:4;stroke-dasharray:none;stroke-opacity:1"
             d="M 94.999999,0 100,59.999998 110,39.999999 105,0 H 94.999999"
             id="path861" />
          <path
             style="fill:#9b9b9b;fill-opacity:1;stroke:#000000;stroke-width:1;stroke-linecap:butt;stroke-linejoin:miter;stroke-miterlimit:4;stroke-dasharray:none;stroke-opacity:1"
             d="M 115,0 120,59.999998 130,39.999999 125,0 h -10"
             id="path863" />
        </g>
      </g>
      <g
         id="g899">
        <path
           style="fill:#333333;stroke:#000000;stroke-width:1;stroke-linecap:butt;stroke-linejoin:miter;stroke-miterlimit:4;stroke-dasharray:none;stroke-opacity:1"
           d="m 20,100 v 80 h 60 c 0,-29.49135 0,-51.42824 0,-80"
           id="path837"
           sodipodi:nodetypes="cccc" />
        <path
           style="fill:#a35b33;fill-opacity:1;stroke:#000000;stroke-width:1;stroke-linecap:butt;stroke-linejoin:miter;stroke-miterlimit:4;stroke-dasharray:none;stroke-opacity:1"
           d="M 20,100 50,40 80,100 50,160 Z"
           id="path835"
           sodipodi:nodetypes="ccccc" />
        <circle
           style="fill:#666666;fill-rule:evenodd;stroke:#000000;stroke-width:1;stroke-miterlimit:4;stroke-dasharray:none;stroke-opacity:1"
           id="path839"
           cx="50"
           cy="100"
           r="16" />
        <path
           sodipodi:type="star"
           style="fill:#333333;fill-opacity:1;stroke:#000000;stroke-width:1;stroke-miterlimit:4;stroke-dasharray:none;stroke-opacity:1"
           id="path841"
           sodipodi:sides="6"
           sodipodi:cx="50.24667"
           sodipodi:cy="100.22607"
           sodipodi:r1="9.9430008"
           sodipodi:r2="4.9715004"
           sodipodi:arg1="0.93804749"
           sodipodi:arg2="1.4616463"
           inkscape:flatsided="false"
           inkscape:rounded="0"
           inkscape:randomized="0"
           inkscape:transform-center-x="0.013612948"
           inkscape:transform-center-y="-0.93651798"
           d="m 56.126599,108.24415 -5.338367,-3.07617 -4.545463,4.1593 -0.0051,-6.16125 -5.874788,-1.85684 5.333225,-3.085074 -1.329324,-6.016135 5.338367,3.07617 4.545464,-4.159295 0.0051,6.161246 5.874787,1.856839 -5.333225,3.085079 z" />
        <path
           style="fill:#ffb380;fill-opacity:1;stroke:none;stroke-width:0.264583px;stroke-linecap:butt;stroke-linejoin:miter;stroke-opacity:1"
           d="M 33.67596,80.180856 48.910324,49.177593 c 0,0 1.336347,10.958049 -2.672696,14.699824 C 42.228584,67.619189 33.67596,80.180856 33.67596,80.180856 Z"
           id="path872" />
        <path
           style="fill:#784421;stroke:none;stroke-width:0.264583px;stroke-linecap:butt;stroke-linejoin:miter;stroke-opacity:1"
           d="m 51.215774,49.420388 c 0,0 -1.41741,5.575146 5.386159,20.599701 6.803573,15.024552 17.292413,24.662945 17.292413,24.662945 z"
           id="path874" />
        <path
           style="fill:#ff9955;stroke:none;stroke-width:0.264583px;stroke-linecap:butt;stroke-linejoin:miter;stroke-opacity:1"
           d="m 23.623512,102.24256 c 0,0 4.157738,0.66146 8.031994,7.9375 3.874254,7.27604 9.071428,26.74181 9.071428,26.74181 z"
           id="path876" />
        <path
           style="fill:#784421;stroke:none;stroke-width:0.264583px;stroke-linecap:butt;stroke-linejoin:miter;stroke-opacity:1"
           d="m 50.648809,153.64732 c 0,0 -3.590775,-14.3631 7.46503,-28.6317 11.055803,-14.2686 13.701636,-14.93006 13.701636,-14.93006 z"
           id="path878" />
        <path
           style="fill:#cccccc;stroke:none;stroke-width:0.264583px;stroke-linecap:butt;stroke-linejoin:miter;stroke-opacity:1"
           d="m 35.907739,100.16369 c -0.188989,-5.57515 1.984375,-8.315476 4.157736,-10.299851 2.173365,-1.984375 6.992559,-4.724702 10.677829,-3.96875 3.685268,0.755952 0.188987,0.283482 -1.322916,0.566965 -1.511906,0.28348 -5.291667,1.133927 -8.693454,4.724702 -3.401785,3.590774 -3.590775,6.614583 -3.590775,8.976934 0,2.36235 -1.22842,0 -1.22842,0 z"
           id="path885" />
        <path
           style="fill:#ffffff;stroke:none;stroke-width:0.264583px;stroke-linecap:butt;stroke-linejoin:miter;stroke-opacity:1"
           d="m 21.544643,108.38467 0.188988,69.16964 1.606399,0.94494 z"
           id="path887" />
      </g>
    </g>
  </g>
</svg>
